<?xml version="1.0" encoding="utf-8"?>
<!-- Generator: Adobe Illustrator 26.0.0, SVG Export Plug-In . SVG Version: 6.00 Build 0)  -->
<svg version="1.1" xmlns="http://www.w3.org/2000/svg" xmlns:xlink="http://www.w3.org/1999/xlink" x="0px" y="0px"
	 viewBox="0 0 2000 2000" style="enable-background:new 0 0 2000 2000;" xml:space="preserve">
<style type="text/css">
	.st0{opacity:0.4;}
	.st1{fill:#E0E0FF;}
	.st2{fill:#FFFFFF;}
	.st3{fill:#5254CF;}
	.st4{opacity:0.4;fill:#E0E0FF;}
	.st5{fill:#FFB147;}
	.st6{fill:#1B1B43;}
	.st7{opacity:0.2;fill:#1B1B43;}
	.st8{fill:#FFBC96;}
	.st9{opacity:0.4;fill:#FE5B52;}
	.st10{fill:#D28572;}
	.st11{fill:#CBCBFF;}
	.st12{fill:#9192FF;}
	.st13{fill:#B0B0D2;}
	.st14{opacity:0.3;fill:#1B1B43;}
	.st15{fill:#925D4F;}
	.st16{fill:#FED3D1;}
	.st17{opacity:0.3;fill:#BE443D;}
	.st18{fill:#FE5B52;}
	.st19{fill:#BE443D;}
	.st20{fill:#393A8F;}
	.st21{opacity:0.4;fill:#FFFFFF;}
</style>
<g id="BACKGROUND">
</g>
<g id="OBJECTS">
	<g>
		<g class="st0">
			<path class="st1" d="M1913.42,1397.62c40.64-199.5,25.96-383.89-78.18-559.41c-74.19-125.05-203.07-229.52-350.49-232.27
				c-139.05-2.6-264.22,82.9-401.6,104.53c-225.99,35.57-459.57-104.25-679.07-40.33c-117.46,34.2-212.97,125.23-266.91,233.35
				c-53.94,108.12-69.22,231.88-60.73,351.88c15.09,213.27,110.77,425.36,274.22,563.34h1331.39
				C1793.91,1690.63,1887.13,1526.67,1913.42,1397.62z"/>
		</g>
		<g>
			<path class="st1" d="M815.79,1632.56H704.55c-3.75,0-6.79-3.04-6.79-6.79v-32.04c0-3.75,3.04-6.79,6.79-6.79h111.24
				c3.75,0,6.79,3.04,6.79,6.79v32.04C822.58,1629.52,819.54,1632.56,815.79,1632.56z"/>
			<path class="st1" d="M957.42,1632.56H846.17c-3.75,0-6.79-3.04-6.79-6.79v-32.04c0-3.75,3.04-6.79,6.79-6.79h111.24
				c3.75,0,6.79,3.04,6.79,6.79v32.04C964.2,1629.52,961.16,1632.56,957.42,1632.56z"/>
			<path class="st1" d="M885.59,1569.84H774.35c-3.75,0-6.79-3.04-6.79-6.79v-32.04c0-3.75,3.04-6.79,6.79-6.79h111.24
				c3.75,0,6.79,3.04,6.79,6.79v32.04C892.38,1566.81,889.34,1569.84,885.59,1569.84z"/>
		</g>
		<g>
			<g>
				<g>
					<g>
						<path class="st2" d="M1487.19,500.59c0-15.68-12.71-28.38-28.38-28.38H514.09c-15.68,0-28.38,12.71-28.38,28.38v23.27h1001.48
							V500.59z"/>
						<path class="st3" d="M1488.69,525.36H484.21v-24.77c0-16.48,13.41-29.88,29.88-29.88h944.71c16.48,0,29.88,13.41,29.88,29.88
							V525.36z M487.21,522.35h998.48v-21.77c0-14.82-12.06-26.88-26.88-26.88H514.09c-14.82,0-26.88,12.06-26.88,26.88V522.35z"/>
					</g>
					<g>
						<path class="st2" d="M485.71,523.86v602.68c0,15.68,12.71,28.38,28.38,28.38h944.71c15.68,0,28.38-12.71,28.38-28.38V523.86
							H485.71z"/>
						<path class="st3" d="M1458.81,1156.42H514.09c-16.48,0-29.88-13.41-29.88-29.88V522.35h1004.48v604.18
							C1488.69,1143.01,1475.28,1156.42,1458.81,1156.42z M487.21,525.36v601.18c0,14.82,12.06,26.88,26.88,26.88h944.71
							c14.82,0,26.88-12.06,26.88-26.88V525.36H487.21z"/>
					</g>
					<g>
						<g>
							
								<ellipse transform="matrix(0.996 -0.0898 0.0898 0.996 -42.5675 49.9932)" class="st2" cx="534.27" cy="498.03" rx="10.12" ry="10.12"/>
							<path class="st3" d="M534.27,509.66c-6.41,0-11.63-5.22-11.63-11.63s5.22-11.63,11.63-11.63s11.63,5.22,11.63,11.63
								S540.68,509.66,534.27,509.66z M534.27,489.43c-4.74,0-8.6,3.86-8.6,8.6s3.86,8.6,8.6,8.6c4.74,0,8.6-3.86,8.6-8.6
								S539.01,489.43,534.27,489.43z"/>
						</g>
						<g>
							
								<ellipse transform="matrix(0.996 -0.0898 0.0898 0.996 -42.4081 53.5362)" class="st2" cx="573.72" cy="498.03" rx="10.12" ry="10.12"/>
							<path class="st3" d="M573.72,509.66c-6.41,0-11.63-5.22-11.63-11.63s5.22-11.63,11.63-11.63s11.63,5.22,11.63,11.63
								S580.13,509.66,573.72,509.66z M573.72,489.43c-4.74,0-8.6,3.86-8.6,8.6s3.86,8.6,8.6,8.6c4.74,0,8.6-3.86,8.6-8.6
								S578.46,489.43,573.72,489.43z"/>
						</g>
						<g>
							
								<ellipse transform="matrix(0.996 -0.0898 0.0898 0.996 -42.2487 57.0793)" class="st2" cx="613.17" cy="498.03" rx="10.12" ry="10.12"/>
							<path class="st3" d="M613.17,509.66c-6.41,0-11.63-5.22-11.63-11.63s5.22-11.63,11.63-11.63s11.63,5.22,11.63,11.63
								S619.59,509.66,613.17,509.66z M613.17,489.43c-4.74,0-8.6,3.86-8.6,8.6s3.86,8.6,8.6,8.6c4.74,0,8.6-3.86,8.6-8.6
								S617.91,489.43,613.17,489.43z"/>
						</g>
					</g>
				</g>
				<rect x="590.09" y="589.57" class="st4" width="792.72" height="475.87"/>
			</g>
			<g>
				<path class="st5" d="M1130.54,1153.19H871.74c-9.56-89.37-12.02-169.49-3.46-222.75c2.34-14.51,5.46-27.01,9.5-37.18
					l108.98-22.18l126.7,11.35C1134.76,937.54,1138.1,1036.62,1130.54,1153.19z"/>
				<rect x="993.28" y="895.87" class="st6" width="3.03" height="103.18"/>
				<path class="st7" d="M1113.46,882.43c0,0-102.03,71.56-245.18,48.01c2.34-14.51,5.46-27.01,9.5-37.18l108.98-22.18
					L1113.46,882.43z"/>
				<path class="st6" d="M935.38,477.98c0,0-49.15,62.67-37.32,115.92l172.66-7.21c0,0,1.48-104.28-36.24-113.16L935.38,477.98z"/>
				<path class="st6" d="M1084.07,580.51h-3.03c0-68.31-35.53-99.7-35.89-100.01l1.98-2.3
					C1047.49,478.51,1084.07,510.82,1084.07,580.51z"/>
				<g>
					<path class="st8" d="M893.34,834.05c-0.21,7.13-1.61,13.99-4.01,20.42c-6.25,16.93-19.36,30.68-36.27,37.42
						c-4.07,1.67-8.38,2.88-12.87,3.64c-8.13,1.4-17.6,2.18-28.74,2.18c-55.84,0-96.38-42.41-101.18-55.34
						c-4.79-12.96,8.73-8.35,8.73-8.35c4.93-11,15.92-2.14,15.92-2.14c3.31-11.47,13.69-0.76,13.69-0.76s0.36-6.28,6.28-5.92
						c3.64,0.24,15.57,7.5,24.19,13.02c4.43,2.82,9.53,4.28,14.69,4.28c2.06,0,4.13-0.21,6.16-0.7
						c10.59-2.43,18.72-10.96,20.7-21.64l16.72-91.1h39.57l12.69,16.27C894.59,765.4,894.28,806.5,893.34,834.05z"/>
					<path class="st9" d="M889.34,854.48c-6.25,16.93-19.36,30.68-36.27,37.42c-1.4-3.37-2.18-7.07-2.18-10.96
						c0-15.63,12.69-28.31,28.34-28.31C882.78,852.62,886.18,853.29,889.34,854.48z"/>
					<path class="st3" d="M978.86,554.54l-81.38,16.58c-29.92,6.1-53.37,29.37-59.69,59.25L815.66,735l73.96,10.35L978.86,554.54z"
						/>
					<path class="st3" d="M1007.21,554.54l81.38,16.58c29.92,6.1,53.37,29.37,59.69,59.25l10.05,74.31l-71.74,12.57L1007.21,554.54z
						"/>
					<path class="st3" d="M889.62,745.35c0,0-3.94,119.32-11.83,147.92c0,0,110.44,38.46,235.68-10.85l-9.86-219.9l-96.39-107.98
						h-28.35l-96.15,124.74L889.62,745.35z"/>
					<path class="st8" d="M1252.99,557.49c0.46,7.8-12.38,31.41-22.24,48.31c-7.25,12.41-11.9,26.22-13.6,40.51
						c-12.72,106.82-21.12,196.2-58.3,221.24c-8.62,5.8-18.75,8.16-30.83,6.49c-8.53-1.18-15.54-4.61-21.27-9.74
						c-39.15-34.84-20.15-147.07-20.15-147.07l48.56-8.38c0,0,10.86-91.71,17.75-123.27c6.92-31.53,17.75-14.78,17.75-14.78
						c3.95-9.86,14.78-3.95,14.78-3.95c7.89-12.81,17.75-2.97,17.75-2.97c5.92-11.81,22.7,8.89,22.7,8.89
						C1236.73,567.84,1252.02,541.1,1252.99,557.49z"/>
					
						<rect x="841.9" y="693.78" transform="matrix(0.0477 -0.9989 0.9989 0.0477 154.9631 1553.1394)" class="st6" width="100.22" height="3.03"/>
					<polygon class="st6" points="1085.21,719.03 1079.02,639.3 1082.04,639.06 1087.98,715.47 1134.9,707.37 1135.42,710.36 					
						"/>
					
						<rect x="1050.96" y="706.45" transform="matrix(0.1313 -0.9913 0.9913 0.1313 284.7391 1740.8622)" class="st10" width="169.39" height="3.03"/>
					<path class="st9" d="M1158.86,867.56c-8.62,5.8-18.75,8.16-30.83,6.49c-8.53-1.18-15.54-4.61-21.27-9.74
						c4.64-9.32,14.26-15.72,25.37-15.72C1144.47,848.59,1155,856.51,1158.86,867.56z"/>
					<g>
						
							<rect x="1170.55" y="570.71" transform="matrix(0.9883 -0.1527 0.1527 0.9883 -74.8211 185.8262)" class="st10" width="3.03" height="18.38"/>
						
							<rect x="1187.24" y="566.55" transform="matrix(0.9501 -0.3121 0.3121 0.9501 -120.3617 399.7665)" class="st10" width="3.03" height="18.72"/>
						
							<rect x="1205.07" y="561.9" transform="matrix(0.9421 -0.3354 0.3354 0.9421 -121.8657 437.7518)" class="st10" width="3.04" height="19.68"/>
					</g>
					<path class="st11" d="M1056.26,643.98h-32.27c-0.83,0-1.51-0.67-1.51-1.51v-7.99c0-0.83,0.67-1.51,1.51-1.51h32.27
						c0.83,0,1.51,0.67,1.51,1.51v7.99C1057.77,643.31,1057.09,643.98,1056.26,643.98z"/>
					<path class="st6" d="M990.56,609.71c-20.83,0-35.26-12.71-35.48-12.9l2.03-2.25c1.25,1.12,30.9,27.13,66.86-0.08l1.83,2.42
						C1013.11,606.5,1001.02,609.71,990.56,609.71z"/>
					<g>
						<path class="st10" d="M767.02,847.21c-6.46-2.51-13.48-7.9-20.31-15.58l2.27-2.02c6.51,7.32,13.13,12.43,19.14,14.77
							L767.02,847.21z"/>
						<path class="st10" d="M749.69,851.63c-6.21-3.92-11.71-10.3-16.83-19.51l2.65-1.47c4.86,8.75,10.03,14.78,15.8,18.42
							L749.69,851.63z"/>
						<path class="st10" d="M737.45,857.26c-7.41-5.51-14.23-13.21-20.86-23.54l2.55-1.64c6.42,10.01,13,17.45,20.11,22.74
							L737.45,857.26z"/>
					</g>
				</g>
				<g>
					<path class="st8" d="M995.9,590.04h-10.86c-14.02,0-25.39-11.37-25.39-25.39v-57.45h61.63v57.45
						C1021.28,578.68,1009.92,590.04,995.9,590.04z"/>
					<path class="st10" d="M959.64,512.48c19.05,32.02,39.5,34.65,61.71,0.25L959.64,512.48z"/>
					<path class="st8" d="M998,525.7h-15.07c-19.45,0-35.22-15.77-35.22-35.22v-79.65h85.5v79.65
						C1033.22,509.93,1017.45,525.7,998,525.7z"/>
					<path class="st6" d="M989.65,484.03c-5-4.72-6.88-8.45-5.75-11.41c1.09-2.84,4.56-3.74,6.61-4.03l-0.11-9.32l3.03-0.03
						l0.14,12.22l-1.5,0.04c-1.48,0.04-4.75,0.64-5.35,2.21c-0.29,0.75-0.37,3.04,5,8.11L989.65,484.03z"/>
					<g>
						<path class="st2" d="M1005.66,493.33c1.88-2.87,2.79-5.35,2.79-5.35c-10.35,0.86-32.3,0.86-32.3,0.86s0.63,2.56,2.46,5.41
							C985.16,494.51,995.9,494.64,1005.66,493.33z"/>
						<path class="st6" d="M978.61,494.25c2.24,3.5,6.27,7.44,13.2,7.66c6.69,0.22,11.22-4.56,13.85-8.57
							C995.9,494.64,985.16,494.51,978.61,494.25z"/>
					</g>
					<path class="st6" d="M1032.73,456.21c0.04,1.64,1.52-34.14-54.25-41.73c0,0-31.49,18.02-27.88,44l-17.1-3.23
						c-6.61-18.01-4.33-66.19,34.36-62.78c0,0,8.34-11.92,22-12.14c69.42-1.14,58.46,75.84,56.79,78.06L1032.73,456.21z"/>
					<g>
						
							<ellipse transform="matrix(0.3132 -0.9497 0.9497 0.3132 269.8699 1308.8849)" class="st8" cx="1039.89" cy="467.86" rx="18.89" ry="15.66"/>
						<path class="st6" d="M1037.69,473.25l-3.01-0.38c0.52-4.18,3.53-12.22,11.15-12.67l0.18,3.03
							C1038.97,463.65,1037.7,473.16,1037.69,473.25z"/>
					</g>
					<g>
						
							<ellipse transform="matrix(0.9497 -0.3132 0.3132 0.9497 -99.2021 318.1995)" class="st8" cx="940.76" cy="467.86" rx="15.66" ry="18.89"/>
						<path class="st6" d="M942.97,473.25c-0.05-0.39-1.31-9.6-8.32-10.02l0.18-3.03c7.63,0.45,10.63,8.48,11.15,12.67
							L942.97,473.25z"/>
					</g>
					<path class="st6" d="M1012.51,450.36c0,2.74-2.06,4.95-4.61,4.95c-2.54,0-4.61-2.22-4.61-4.95c0-2.74,2.06-4.95,4.61-4.95
						C1010.45,445.4,1012.51,447.62,1012.51,450.36z"/>
					<path class="st6" d="M1016.59,439.56l-15.07-1.81c-1.11-0.13-1.9-1.14-1.77-2.25l0.18-1.53c0.13-1.11,1.14-1.9,2.25-1.77
						l15.07,1.81c1.11,0.13,1.9,1.14,1.77,2.25l-0.18,1.53C1018.7,438.91,1017.7,439.7,1016.59,439.56z"/>
					<path class="st6" d="M968.14,450.36c0,2.74,2.06,4.95,4.61,4.95s4.61-2.22,4.61-4.95c0-2.74-2.06-4.95-4.61-4.95
						S968.14,447.62,968.14,450.36z"/>
					<path class="st6" d="M964.07,439.56l15.07-1.81c1.11-0.13,1.9-1.14,1.77-2.25l-0.18-1.53c-0.13-1.11-1.14-1.9-2.25-1.77
						l-15.07,1.81c-1.11,0.13-1.9,1.14-1.77,2.25l0.18,1.53C961.95,438.91,962.95,439.7,964.07,439.56z"/>
					<circle class="st9" cx="1016.51" cy="469.93" r="9.93"/>
					<circle class="st9" cx="964.14" cy="469.93" r="9.93"/>
				</g>
			</g>
			<g>
				<g>
					<path class="st2" d="M712.8,786.87H411.07c-6.95,0-12.59-5.64-12.59-12.59V647.04c0-6.95,5.64-12.59,12.59-12.59H712.8
						c6.95,0,12.59,5.64,12.59,12.59v127.24C725.39,781.23,719.75,786.87,712.8,786.87z"/>
					<path class="st3" d="M710.11,788.33H413.77c-9.23,0-16.74-7.51-16.74-16.74V649.73c0-9.23,7.51-16.74,16.74-16.74h296.34
						c9.23,0,16.74,7.51,16.74,16.74v121.86C726.85,780.82,719.34,788.33,710.11,788.33z M413.77,635.91
						c-7.62,0-13.82,6.2-13.82,13.82v121.86c0,7.62,6.2,13.82,13.82,13.82h296.34c7.62,0,13.82-6.2,13.82-13.82V649.73
						c0-7.62-6.2-13.82-13.82-13.82H413.77z"/>
				</g>
				<g>
					<rect x="434.85" y="671.97" class="st1" width="254.16" height="3.03"/>
					<rect x="434.85" y="709.14" class="st1" width="254.16" height="3.03"/>
					<rect x="434.85" y="746.32" class="st1" width="254.16" height="3.03"/>
				</g>
				<polygon class="st3" points="439.1,749.63 436.72,747.74 454.84,724.9 486.02,735.55 512.87,706.4 540.17,728.39 572.22,692.52 
					601.29,726.06 627.25,658.84 654.2,701.18 685.52,656.02 688.01,657.75 654.09,706.66 627.92,665.54 602.3,731.86 
					572.19,697.11 540.51,732.56 513.18,710.54 486.92,739.06 455.89,728.46 				"/>
			</g>
			<g>
				<g>
					<path class="st2" d="M1258.45,373.25l-14.63-118.32c-58.95,7.22-104.62,57.42-104.62,118.32
						c0,65.86,53.39,119.25,119.25,119.25c65.86,0,119.25-53.39,119.25-119.25c0-3.49-0.18-6.93-0.47-10.34L1258.45,373.25z"/>
					<path class="st3" d="M1258.45,494.01c-66.59,0-120.76-54.17-120.76-120.76c0-60.92,45.55-112.43,105.95-119.83l1.5-0.18
						l14.64,118.37l118.83-10.35l0.13,1.51c0.32,3.76,0.48,7.19,0.48,10.47C1379.21,439.84,1325.03,494.01,1258.45,494.01z
						 M1242.5,256.63c-58.13,7.87-101.78,57.74-101.78,116.62c0,64.92,52.81,117.73,117.73,117.73s117.73-52.81,117.73-117.73
						c0-2.75-0.11-5.61-0.35-8.7l-118.71,10.33L1242.5,256.63z"/>
				</g>
				<path class="st12" d="M1320.66,348.97l118.77-10.34c-1.91-22.26-9.93-42.76-22.38-59.83L1320.66,348.97z"/>
				<g>
					<path class="st1" d="M1354.84,303.08c-21.68-29.74-56.77-49.07-96.39-49.07c-4.96,0-9.83,0.34-14.63,0.93l14.63,118.32
						L1354.84,303.08z"/>
					<path class="st3" d="M1257.26,375.99l-15.13-122.39l1.51-0.18c5.15-0.63,9.99-0.94,14.81-0.94c38.43,0,74.92,18.58,97.62,49.7
						l0.9,1.23L1257.26,375.99z M1245.51,256.26l14.13,114.25l93.07-67.76c-22.18-29.6-57.3-47.23-94.26-47.23
						C1254.22,255.52,1249.98,255.77,1245.51,256.26z"/>
				</g>
			</g>
			<g>
				<g>
					<path class="st2" d="M1561.01,990.22h-224.47c-8.57,0-15.51-6.95-15.51-15.51V729.09c0-8.57,6.95-15.51,15.51-15.51h224.47
						c8.57,0,15.51,6.95,15.51,15.51v245.62C1576.52,983.28,1569.58,990.22,1561.01,990.22z"/>
					<path class="st3" d="M1557.69,991.68h-217.83c-11.19,0-20.29-9.1-20.29-20.29V732.41c0-11.19,9.1-20.29,20.29-20.29h217.83
						c11.19,0,20.29,9.1,20.29,20.29v238.98C1577.98,982.58,1568.88,991.68,1557.69,991.68z M1339.87,715.04
						c-9.58,0-17.37,7.79-17.37,17.37v238.98c0,9.58,7.79,17.37,17.37,17.37h217.83c9.58,0,17.37-7.79,17.37-17.37V732.41
						c0-9.58-7.79-17.37-17.37-17.37H1339.87z"/>
				</g>
				<g>
					<rect x="1350.15" y="753.19" class="st1" width="197.26" height="3.19"/>
					<rect x="1350.15" y="801.75" class="st1" width="197.26" height="3.19"/>
					<rect x="1350.15" y="850.31" class="st1" width="197.26" height="3.19"/>
					<rect x="1350.15" y="898.86" class="st1" width="197.26" height="3.19"/>
					<rect x="1350.15" y="947.42" class="st1" width="197.26" height="3.19"/>
				</g>
				<g>
					<rect x="1350.15" y="818.45" class="st11" width="16.8" height="132.16"/>
					<rect x="1386.68" y="867.56" class="st1" width="16.8" height="83.05"/>
					<rect x="1423.2" y="837.05" class="st11" width="16.8" height="113.57"/>
					<rect x="1459.73" y="816.54" class="st1" width="16.8" height="134.07"/>
					<rect x="1496.26" y="791.79" class="st11" width="16.8" height="158.82"/>
					<rect x="1532.78" y="765.44" class="st1" width="16.8" height="185.18"/>
				</g>
			</g>
			<g>
				<g>
					<path class="st2" d="M832.2,271.46H683.41c-9.77,0-17.68,7.92-17.68,17.68v60.23c0,9.77,7.92,17.68,17.68,17.68h101.61
						l39.06,33.38v-33.38h8.11c9.77,0,17.68-7.92,17.68-17.68v-60.23C849.89,279.38,841.97,271.46,832.2,271.46z"/>
					<path class="st3" d="M825.68,403.9l-41.25-35.25H683.41c-10.63,0-19.28-8.65-19.28-19.28v-60.23
						c0-10.63,8.65-19.28,19.28-19.28H832.2c10.63,0,19.28,8.65,19.28,19.28v60.23c0,10.63-8.65,19.28-19.28,19.28h-6.52V403.9z
						 M683.41,273.06c-8.87,0-16.09,7.22-16.09,16.09v60.23c0,8.87,7.22,16.09,16.09,16.09h102.2l36.88,31.52v-31.52h9.71
						c8.87,0,16.09-7.22,16.09-16.09v-60.23c0-8.87-7.22-16.09-16.09-16.09H683.41z"/>
				</g>
				<g>
					<rect x="688.28" y="295.74" class="st12" width="119.12" height="3.03"/>
					<rect x="688.28" y="316.23" class="st12" width="135.05" height="3.03"/>
					<rect x="688.28" y="336.71" class="st12" width="94.84" height="3.03"/>
				</g>
			</g>
		</g>
		<g>
			<rect x="750.03" y="1302.67" class="st13" width="42.49" height="515.91"/>
			<rect x="1182.49" y="1302.67" class="st13" width="42.49" height="515.91"/>
			<rect x="750.03" y="1301.26" class="st14" width="42.49" height="90.94"/>
			<rect x="1182.49" y="1301.26" class="st14" width="42.49" height="90.94"/>
			<rect x="510.4" y="1285.08" class="st13" width="954.2" height="42.75"/>
		</g>
		<g>
			<rect x="1241.88" y="1270.48" class="st6" width="110.5" height="14.65"/>
			<path class="st6" d="M1258.23,1285.13h-16.35l-65.13-171.83c-1.9-5,1.8-10.35,7.15-10.35l0,0c3.18,0,6.02,1.96,7.15,4.93
				L1258.23,1285.13z"/>
		</g>
		<g>
			
				<rect x="647.81" y="1270.48" transform="matrix(-1 -1.224647e-16 1.224647e-16 -1 1406.1095 2555.6055)" class="st6" width="110.5" height="14.65"/>
			<path class="st6" d="M741.96,1285.13h16.35l65.13-171.83c1.9-5-1.8-10.35-7.15-10.35l0,0c-3.18,0-6.02,1.96-7.15,4.93
				L741.96,1285.13z"/>
		</g>
		<g>
			<g>
				<g>
					<polygon class="st10" points="430.57,1087.29 490.85,1096.98 491.52,1063.95 492.15,1031.07 492.71,1002.95 475.99,995.06 
						447.35,1028.62 					"/>
					<path class="st15" d="M466.89,1030.72c0,0,7.27,15.27,24.63,33.23l0.63-32.88L466.89,1030.72z"/>
					<path class="st15" d="M533.91,990.07c0.7,0.39,19.09,28.55,10.83,31.1c-8.26,2.55-18.69,1.57-18.69,1.57L533.91,990.07z"/>
					<path class="st10" d="M539.96,966.12l-7.61,69.99c-0.65,5.94-4.54,11.02-10.11,13.19l0,0c-3.89,1.51-8.21,1.45-12.05-0.18
						l-43.32-18.38l-5.84-39.46l35.07-36.73L539.96,966.12z"/>
					<polygon class="st16" points="435.76,1048.87 415.02,1094.9 495.45,1107.55 501.01,1071.63 					"/>
					<path class="st6" d="M488.59,991.17c0,0,35.56-6,51.38-25.06c0,0,5.86-36.85-48.35-41.74c-58.82-5.3-113.97,77.93-113.97,77.93
						l71.85,62.76L488.59,991.17z"/>
					
						<ellipse transform="matrix(0.8893 -0.4573 0.4573 0.8893 -400.8712 332.4157)" class="st10" cx="486.29" cy="994.35" rx="12.29" ry="16.02"/>
					<path class="st6" d="M488.76,1000.03c-0.25-1.68-1.46-6.43-4.06-8.21c-1-0.68-2.11-0.88-3.4-0.58l-0.67-2.96
						c2.14-0.48,4.09-0.13,5.8,1.05c4.22,2.9,5.29,9.97,5.33,10.27L488.76,1000.03z"/>
					<circle class="st17" cx="514.35" cy="1008.73" r="11.76"/>
				</g>
				<g>
					<path class="st18" d="M521.69,1198.1c-4.7,17.45-16.96,32.41-34.35,39.6c-1.03,0.42-2.06,0.82-3.13,1.21
						c-1.03,0.36-2.03,0.76-3.03,1.12c-32.44,12.75-57.84,39.45-67.98,72.9c-0.58,1.94-1.06,3.79-1.46,5.52
						c0,0-67.52,9.86-135.81-28.07c0,0,37.63-133.5,120.69-197.02c19.21-14.69,44.43-18.94,67.49-11.62
						c10.11,3.22,19.54,7.98,28.04,14.08c8.47,6.13,15.99,13.57,22.24,22.12l1.49,2.06l7.34,53.59
						C524.39,1181.96,523.78,1190.27,521.69,1198.1z"/>
					<path class="st19" d="M521.69,1198.1c-4.7,17.45-16.96,32.41-34.35,39.6c-1.03,0.42-2.06,0.82-3.13,1.21
						c-1.03,0.36-2.03,0.76-3.03,1.12c-10.5-25.77-19.12-66.73-19.12-66.73l50.59,6.71L521.69,1198.1z"/>
					<path class="st10" d="M631,1140.93c0,0,44.43-47.5,58.42-44c6.07,1.52-12.14,20.48-12.14,20.48s17.37,0.33,45.21-14.04
						c3.04-1.57,6.79-0.23,8.11,2.93l0,0c0.83,1.99,0.5,4.26-0.85,5.94c-5.89,7.3-23.45,26.95-47.91,35.51l-10.38,13.41
						l-26.04,12.38L631,1140.93z"/>
					<path class="st18" d="M671.45,1161.17l-58.12,103.61c-7.22,12.84-20.79,20.82-35.54,20.82c-5.92,0-11.68-1.31-16.93-3.7
						c-5.25-2.4-9.98-5.92-13.87-10.41l-84.94-98.17l53.84-53.29l58.97,80.85l56.14-59.94L671.45,1161.17z"/>
					<path class="st6" d="M591.41,1230.89c-34.09-53.22-79.36-116.22-103.65-136.99l1.97-2.31
						c28.02,23.96,78.71,97.81,104.23,137.66L591.41,1230.89z"/>
					<path class="st6" d="M579.31,1288.46c-6.21,0-12.68-1.73-19.17-5.23c-18.59-10.04-95.98-104.93-99.27-108.96l2.35-1.92
						c0.8,0.98,80.29,98.45,98.36,108.21c20.55,11.1,34.5,1.01,40.99-5.99c10.33-11.16,66.98-113.1,67.55-114.13l2.65,1.47
						c-2.34,4.21-57.4,103.3-67.98,114.72C597.54,1284.47,588.73,1288.46,579.31,1288.46z"/>
				</g>
				<g>
					<path class="st6" d="M483.81,1698.82l-52.34,103.2l11.43,1.62l18.97-26.94l59.49,41.99l34.88-0.15c0,0,7.08-7.02-11.04-25.85
						c-21.3-22.14-33.48-51.16-32.92-81.45l0.05-2.61l-14.27-14.55L483.81,1698.82z"/>
					<path class="st20" d="M486,1731.07l-11.55,87.44H486l15.01-29.34l55.42,28.21h43.88c0,0,6.02-7.95-14.55-24.05
						c-24.19-18.93-40.32-45.96-44.01-76.04l-0.32-2.59l-16.16-12.41L486,1731.07z"/>
					<path class="st6" d="M547.54,1741.81l81.23-285.63c6.55-23.03-4.43-47.43-26-57.81l-73.15-35.18l-4.36,339.11L547.54,1741.81z"
						/>
					<path class="st3" d="M275.93,1290.39l-16.36,77.9c-9.56,45.49,25.16,88.25,71.64,88.25h153.11
						c-15.32,74.85-5.36,177.81,0,283.75l63.22,1.52l43.61-272.29c7.3-45.55-18.41-89.96-61.54-106.33l-117.88-44.73L275.93,1290.39
						z"/>
					<path class="st21" d="M529.32,1742.01l-3.01-0.39c0.33-2.57,33.25-257.24,24.29-304.01c-9.25-48.32-102.4-62.27-152.45-69.76
						c-4.45-0.67-8.55-1.28-12.2-1.86c-12.54-2-21.46-7.41-26.51-16.09c-9.96-17.12-1.35-40.59-0.98-41.58l2.84,1.06
						c-0.09,0.23-8.48,23.14,0.77,39c4.57,7.85,12.77,12.76,24.35,14.6c3.64,0.58,7.73,1.19,12.17,1.86
						c50.79,7.6,145.32,21.76,154.98,72.19c3.8,19.86,0.87,77.23-8.71,170.51C537.75,1676.95,529.41,1741.37,529.32,1742.01z"/>
				</g>
			</g>
			<g>
				<g>
					<polygon class="st13" points="310.71,1468.87 300.24,1529.38 250.14,1818.99 229.07,1818.99 279.18,1529.38 289.65,1468.87 
											"/>
					<polygon class="st13" points="450.31,1818.99 429.25,1818.99 379.14,1529.38 368.67,1468.87 389.74,1468.87 400.21,1529.38 
											"/>
					<polygon class="st14" points="310.71,1468.87 300.24,1529.38 279.18,1529.38 289.65,1468.87 					"/>
					<polygon class="st14" points="400.21,1529.38 379.14,1529.38 368.67,1468.87 389.74,1468.87 					"/>
				</g>
				<path class="st11" d="M432.71,1485.38H235.62v-28.83h197.09c7.96,0,14.42,6.45,14.42,14.42l0,0
					C447.13,1478.92,440.67,1485.38,432.71,1485.38z"/>
				<path class="st11" d="M263.44,1485.38h-27.82l-93.96-230.33c-2.62-6.41,0.24-13.75,6.51-16.71v0
					c6.76-3.18,14.81-0.04,17.62,6.88L263.44,1485.38z"/>
			</g>
		</g>
		<g>
			<g>
				<g>
					<path class="st10" d="M1543.59,988.08c-0.71,0.36-20.21,27.54-12.11,30.43c8.1,2.89,18.5,2.37,18.5,2.37L1543.59,988.08z"/>
					<polygon class="st8" points="1642.04,1089.18 1577.11,1096.87 1578.31,1063.95 1579.54,1031.19 1580.57,1003.18 
						1598.88,995.87 1627.52,1030.22 					"/>
					<path class="st10" d="M1606.53,1031.67c0,0-8.65,14.96-28.22,32.28l1.22-32.76L1606.53,1031.67z"/>
					<path class="st8" d="M1538.62,964.02l4.51,69.87c0.38,5.93,4.03,11.15,9.47,13.54h0c3.8,1.67,8.1,1.8,11.99,0.34l43.84-16.38
						l7.52-38.95l-33.25-38.03L1538.62,964.02z"/>
					<path class="st6" d="M1589.35,992.42c0,0-10.77-20.9-21.98-24.1c0,0-43.17,14.07-52.67-19.04c0,0,24.32,0.23,45.17-14.36
						c20.85-14.59,42.59-7.59,57.65,6.03c0,0,49.19,2.43,10.41,89.22c0,0-9.75,3.23-34.57-31.44L1589.35,992.42z"/>
					<path class="st8" d="M1601.45,999.57c-4.36,7.64-12.61,11.15-18.42,7.83c-5.81-3.32-6.99-12.2-2.63-19.84
						c4.36-7.64,12.61-11.15,18.42-7.83C1604.63,983.04,1605.81,991.93,1601.45,999.57z"/>
					<ellipse class="st9" cx="1564.01" cy="1005.12" rx="11.95" ry="12.14"/>
					<path class="st6" d="M1587.35,998.9c-0.59-3.93,0.49-12,8.86-14.39l0.83,2.92c-7.92,2.26-6.75,10.67-6.69,11.02L1587.35,998.9z
						"/>
				</g>
				<polygon class="st11" points="1577.11,1096.87 1577.85,1063.04 1635.01,1048.37 1651.7,1090.35 				"/>
				<path class="st6" d="M1585.94,1083.27c-28.69,27.92-49.57,69.8-75.87,112.29c0,0-89.15,23.01-114.69,48.56l45.9,23.27
					l156.8-43.5L1585.94,1083.27z"/>
				<g>
					<path class="st6" d="M1354.14,1716.87l-35.76,101.54l-111.89-27.92c0,0,17.41-23.81,69.92-16.96l27.92-78.47L1354.14,1716.87z"
						/>
					<path class="st20" d="M1577.85,1315.43l-161.6,52.52c-37.94,12.33-66.92,43.25-76.78,81.91l-65.1,269.2l88.01,22.76
						c34.5-81.78,68.01-179.38,91.04-274.14L1577.85,1315.43z"/>
					<path class="st6" d="M1519.18,1724.56l13.15,94.08h-122.4c0,0,11.13-27.31,63.73-33.38l-3.03-56.65L1519.18,1724.56z"/>
					<path class="st3" d="M1724.35,1288.61l16.36,77.9c9.56,45.49-24.58,90.79-71.06,90.79h-147.19
						c8.27,75.63,16.24,175.27,10.87,281.21l-80.6,1.52l-43.61-272.29c-7.3-45.55,18.41-89.96,61.54-106.33l107.18-45.98
						L1724.35,1288.61z"/>
				</g>
				<path class="st6" d="M1729.59,1313.91c-13.25-126.62-32.22-246.1-127.6-240.61c-5.66,0.33-10.97,2.86-14.98,6.87l0,0
					c-16.41,16.41-24.8,39.18-22.95,62.31l13.79,172.95C1577.85,1315.43,1652.2,1329.08,1729.59,1313.91z"/>
				<g>
					<path class="st8" d="M1395.39,1242.97c0,0-56.14,10.62-65.25,42.49h79.66l15.17-10.62L1395.39,1242.97z"/>
					<path class="st6" d="M1602.51,1101.1l-72.83,113.05l-134.29,28.83l14.42,42.49l112.59-0.58c30.23-0.59,56.1-16.39,72.91-41.53
						l62.59-89.91L1602.51,1101.1z"/>
				</g>
				<path class="st3" d="M1395.7,1244.46l-0.64-2.97l133.46-28.65c3.56-10.03,7.09-20.43,10.5-30.49
					c14.02-41.26,27.26-80.24,43.69-101.53l2.4,1.85c-16.11,20.89-29.28,59.63-43.22,100.65c-3.51,10.34-7.14,21.02-10.8,31.32
					l-0.28,0.8l-0.83,0.18L1395.7,1244.46z"/>
				<path class="st3" d="M1475.87,1287.57c-31.23,0-63.65-0.55-66.1-0.59l0.05-3.03c1.09,0.02,109.61,1.86,122.93-1.1l0.41-0.09
					c32.19-7.17,58.91-29.71,71.48-60.29l15.04-36.59l2.81,1.15l-15.04,36.59c-12.95,31.5-40.48,54.72-73.63,62.1l-0.41,0.09
					C1527.2,1287.19,1501.95,1287.57,1475.87,1287.57z"/>
			</g>
			<g>
				<g>
					<polygon class="st13" points="1756.79,1818.98 1777.86,1818.98 1717.28,1468.86 1696.21,1468.86 					"/>
					<polygon class="st13" points="1577.68,1818.98 1556.61,1818.98 1617.19,1468.86 1638.26,1468.86 					"/>
					<g>
						<polygon class="st14" points="1638.22,1468.86 1627.75,1529.37 1606.69,1529.37 1617.16,1468.86 						"/>
						<polygon class="st14" points="1727.71,1529.37 1706.65,1529.37 1696.18,1468.86 1717.24,1468.86 						"/>
					</g>
				</g>
				<path class="st11" d="M1574.21,1485.38h197.09v-28.83h-197.09c-7.96,0-14.42,6.45-14.42,14.42l0,0
					C1559.8,1478.92,1566.25,1485.38,1574.21,1485.38z"/>
				<path class="st11" d="M1743.48,1485.38h27.82l93.96-230.33c2.62-6.41-0.24-13.75-6.51-16.71v0c-6.76-3.18-14.81-0.04-17.62,6.88
					L1743.48,1485.38z"/>
			</g>
		</g>
		<rect x="33.47" y="1817.18" class="st6" width="1933.06" height="3.03"/>
	</g>
</g>
</svg>
